<?xml version="1.0" encoding="UTF-8" standalone="no"?>
<svg width="60px" height="30px" viewBox="0 0 60 30" version="1.1" xmlns="http://www.w3.org/2000/svg" xmlns:xlink="http://www.w3.org/1999/xlink">
    <!-- Generator: Sketch 3.8.3 (29802) - http://www.bohemiancoding.com/sketch -->
    <title>iconEbook</title>
    <desc>Created with Sketch.</desc>
    <defs></defs>
    <g id="Symbols" stroke="none" stroke-width="1" fill="none" fill-rule="evenodd">
        <g id="iconEbook">
            <g id="Group">
                <g id="bg" transform="translate(30.000000, 15.000000) scale(-1, 1) translate(-30.000000, -15.000000) " fill="#00B7F1">
                    <rect x="0" y="0" width="60" height="30"></rect>
                </g>
                <g id="miki-logo" transform="translate(5.000000, 9.000000)" fill="#FFFFFF">
                    <g id="text">
                        <g id="E">
                            <path d="M5.84139006,9.22507244 L1.84808362,9.22507244 C1.76242435,9.22507244 1.7195122,9.17824317 1.7195122,9.08391564 L1.7195122,1.77185989 C1.7195122,1.69241738 1.76242435,1.64558812 1.84808362,1.63103759 L5.84139006,1.63103759 C5.92704933,1.63103759 5.96979644,1.67619439 5.96979644,1.76650798 C5.96979644,1.85698881 5.92704933,1.90214561 5.84139006,1.90214561 L1.98721805,1.90214561 L1.98721805,5.28689822 L5.38107464,5.28689822 C5.46656886,5.28689822 5.50948102,5.33222226 5.50948102,5.4227031 C5.50948102,5.51318394 5.46656886,5.55817348 5.38107464,5.55817348 L1.98721805,5.55817348 L1.98721805,8.95379718 L5.84139006,8.95379718 C5.92704933,8.95379718 5.96979644,8.99912122 5.96979644,9.08943481 C5.96979644,9.17991564 5.92704933,9.22507244 5.84139006,9.22507244" id="Fill-12"></path>
                            <path d="M5.84137356,10.0613094 L1.84806712,10.0613094 C1.58069136,10.0613094 1.34549972,9.95979021 1.17550156,9.79003411 L1.16196772,9.79003411 L1.16196772,9.77615258 C0.994775353,9.6018808 0.894261874,9.35970658 0.894261874,9.08391564 L0.894261874,1.77202714 C0.894261874,1.50710728 0.993785072,1.26877975 1.16196772,1.09333725 L1.16196772,1.06590867 L1.18936549,1.06590867 C1.32701449,0.933615991 1.50609023,0.841128186 1.71173849,0.806173482 L1.77940767,0.79480066 L5.84137356,0.79480066 C6.38503759,0.79480066 6.79501375,1.21258463 6.79501375,1.76650798 C6.79501375,2.32059857 6.38503759,2.73838254 5.84137356,2.73838254 L2.81243536,2.73838254 L2.81243536,4.45066129 L5.38105813,4.45066129 C5.92472217,4.45066129 6.33469833,4.86844526 6.33469833,5.4227031 C6.33469833,5.97662644 5.92472217,6.39441042 5.38105813,6.39441042 L2.81243536,6.39441042 L2.81243536,8.11756024 L5.84137356,8.11756024 C6.38503759,8.11756024 6.79501375,8.53534421 6.79501375,9.08943481 C6.79501375,9.6435254 6.38503759,10.0613094 5.84137356,10.0613094" id="Fill-14"></path>
                        </g>
                        <g id="B" transform="translate(10.000000, 0.000000)">
                            <path d="M1.40384009,8.95378045 L3.48078856,8.95378045 C3.98022006,8.95378045 4.40505043,8.77482575 4.75478452,8.41674909 C5.10435357,8.05883968 5.27946818,7.62683968 5.27946818,7.1204146 C5.27946818,6.61432401 5.10435357,6.18198951 4.75478452,5.82391286 C4.40505043,5.46600345 3.98022006,5.2868815 3.48078856,5.2868815 L1.40384009,5.2868815 L1.40384009,8.95378045 Z M1.40384009,4.99403132 L2.98828902,4.99403132 C3.40932331,4.99403132 3.76796992,4.84401042 4.06422886,4.54380136 C4.36032276,4.24375955 4.51200073,3.88033097 4.51926279,3.45351564 C4.51200073,3.0340592 4.36032276,2.6723031 4.06422886,2.36858184 C3.76796992,2.06502784 3.40932331,1.90948777 2.98828902,1.90212888 L1.40384009,1.90212888 L1.40384009,4.99403132 Z M1.13613424,9.08389892 L1.13613424,1.77201042 C1.13613424,1.67801738 1.18234733,1.63102087 1.27510361,1.63102087 L2.98284247,1.63102087 C3.48111865,1.63102087 3.90611407,1.80997557 4.25848891,2.16805223 C4.61086374,2.52596164 4.78696864,2.95444944 4.78696864,3.45351564 C4.78696864,3.79352958 4.70328993,4.10444247 4.53609756,4.38642157 C4.36874014,4.66856791 4.14295617,4.88916721 3.85808546,5.04838672 C4.34348799,5.14237975 4.74669723,5.3828815 5.06787823,5.7697247 C5.38905923,6.15673515 5.54964973,6.62335536 5.54964973,7.16925083 C5.54964973,7.7154808 5.34796259,8.19447732 4.94475335,8.60674212 C4.5415441,9.01900693 4.05119017,9.22505571 3.47385659,9.22505571 L1.27510361,9.22505571 C1.18234733,9.22505571 1.13613424,9.17822644 1.13613424,9.08389892 L1.13613424,9.08389892 Z" id="Fill-16"></path>
                            <path d="M2.2290739,4.15784456 L2.98828902,4.15784456 C3.19129653,4.15784456 3.33868329,4.09646477 3.48078856,3.95246477 C3.6214084,3.80997 3.6874271,3.65560066 3.69386393,3.45390031 C3.6874271,3.25705014 3.62025307,3.10301529 3.47715753,2.95617209 C3.33356684,2.80916164 3.17842289,2.74176094 2.97409499,2.73824874 L2.2290739,2.73841599 L2.2290739,4.15784456 Z M2.2290739,8.11759369 L3.48078856,8.11759369 C3.76087291,8.11759369 3.972958,8.02845083 4.16820833,7.82842296 C4.36593435,7.62605362 4.45406932,7.40762853 4.45406932,7.12046477 C4.45406932,6.83313376 4.36593435,6.61454143 4.16820833,6.41217209 C3.972958,6.21231146 3.76087291,6.1231686 3.48078856,6.1231686 L2.2290739,6.1231686 L2.2290739,8.11759369 Z M3.47385659,10.0613428 L1.27510361,10.0613428 C1.00475701,10.0613428 0.767089675,9.95965641 0.595441042,9.79006756 L0.578606272,9.79006756 L0.578606272,9.77300833 C0.411083807,9.59907104 0.310900422,9.35806756 0.310900422,9.08394909 L0.310900422,1.77189334 C0.310900422,1.49794212 0.411083807,1.25693864 0.578606272,1.08283411 L0.578606272,1.06594212 L0.595441042,1.06594212 C0.767254722,0.896353273 1.00475701,0.79483411 1.27510361,0.79483411 L2.98284247,0.79483411 C3.69567944,0.79483411 4.33886668,1.06544038 4.84275445,1.57755188 C5.34614708,2.08899439 5.61220246,2.737747 5.61220246,3.45356582 C5.61220246,3.93691076 5.49254355,4.38797697 5.25652668,4.79505711 C5.41530167,4.92149613 5.56301852,5.0671686 5.6991821,5.23123829 C6.14761416,5.77144735 6.37488355,6.42354491 6.37488355,7.16930101 C6.37488355,7.9411477 6.09083807,8.62284805 5.5308344,9.19533585 C4.96885017,9.76999787 4.27664405,10.0613428 3.47385659,10.0613428 L3.47385659,10.0613428 Z" id="Fill-18"></path>
                        </g>
                        <g id="O" transform="translate(19.000000, 0.000000)">
                            <path d="M4.75385476,9.07317836 C5.67465065,9.05879509 6.46307904,8.69887871 7.11996516,7.99376373 C7.77652118,7.2884815 8.10843022,6.4368578 8.11552723,5.43889265 C8.10843022,4.43373585 7.77652118,3.57659299 7.11996516,2.86763132 C6.46307904,2.15900414 5.67465065,1.80443968 4.75385476,1.80443968 C3.83322391,1.80443968 3.04264992,2.15900414 2.38262791,2.86763132 C1.72227581,3.57659299 1.39234733,4.43172888 1.39234733,5.43337348 C1.39234733,6.43518533 1.7204603,7.2884815 2.37718137,7.99376373 C3.03373739,8.69887871 3.82596186,9.05879509 4.75385476,9.07317836 M8.40468916,5.43889265 C8.39033009,6.53101808 8.03003301,7.45857209 7.32330277,8.22155467 C6.61673758,8.98470449 5.75651385,9.36619578 4.74312672,9.36619578 C3.72973959,9.36619578 2.86968091,8.98470449 2.16311572,8.22155467 C1.45638548,7.45857209 1.09938933,6.53101808 1.09245736,5.43889265 C1.09938933,4.35395885 1.45638548,3.43008428 2.16311572,2.66693446 C2.86968091,1.90411913 3.72775903,1.52229334 4.73784522,1.52229334 C5.74760132,1.52229334 6.60766,1.90411913 7.31802127,2.66693446 C8.02821749,3.43008428 8.39033009,4.35395885 8.40468916,5.43889265" id="Fill-20"></path>
                            <path d="M4.75385476,2.64069334 C4.06395929,2.64069334 3.4848102,2.90260275 2.98290299,3.44164108 C2.46779204,3.99439369 2.21758115,4.64582226 2.21758115,5.43339021 C2.21758115,6.22095815 2.46614157,6.87071425 2.9772914,7.41978742 C3.47622776,7.9554808 4.05735742,8.22290937 4.75368971,8.2367909 C5.442925,8.22290937 6.02075371,7.9554808 6.51985513,7.41962017 C7.03282047,6.86887453 7.28468183,6.21911843 7.29029342,5.43272122 C7.28468183,4.65067244 7.03232533,3.99489543 6.51820466,3.4399686 C6.01976343,2.90210101 5.4425949,2.64069334 4.75385476,2.64069334 M4.74329177,10.2024494 C3.49735375,10.2024494 2.4266954,9.72847035 1.56119017,8.7937247 C0.711034293,7.87553655 0.275475885,6.74862366 0.267223547,5.44426129 C0.275640932,4.13621948 0.711034293,3.01315327 1.56119017,2.09479787 C2.42702549,1.16005223 3.49570328,0.686073134 4.73784522,0.686073134 C5.97899688,0.686073134 7.04899505,1.15955049 7.91829635,2.0931254 C8.77158812,3.00997557 9.21275811,4.1317038 9.22992298,5.42753655 L9.22992298,5.4499477 C9.21275811,6.7523031 8.77373372,7.87737627 7.92522831,8.7937247 C7.05972309,9.72847035 5.98906474,10.2024494 4.74329177,10.2024494" id="Fill-22"></path>
                        </g>
                        <g id="O" transform="translate(31.000000, 0.000000)">
                            <path d="M4.51508161,9.07317836 C5.4358775,9.05879509 6.22430589,8.69887871 6.881192,7.99376373 C7.53774803,7.2884815 7.86965707,6.4368578 7.87675408,5.43889265 C7.86965707,4.43373585 7.53774803,3.57659299 6.881192,2.86763132 C6.22430589,2.15900414 5.4358775,1.80443968 4.51508161,1.80443968 C3.59445076,1.80443968 2.80387677,2.15900414 2.14385476,2.86763132 C1.48350266,3.57659299 1.15357418,4.43172888 1.15357418,5.43337348 C1.15357418,6.43518533 1.48168714,7.2884815 2.13840822,7.99376373 C2.79496424,8.69887871 3.5871887,9.05879509 4.51508161,9.07317836 M8.16591601,5.43889265 C8.15155694,6.53101808 7.79125986,7.45857209 7.08452962,8.22155467 C6.37796442,8.98470449 5.51774069,9.36619578 4.50451861,9.36619578 C3.49096644,9.36619578 2.63090776,8.98470449 1.92434256,8.22155467 C1.21761232,7.45857209 0.860616175,6.53101808 0.853684211,5.43889265 C0.860616175,4.35395885 1.21761232,3.43008428 1.92434256,2.66693446 C2.63090776,1.90411913 3.48898588,1.52229334 4.49907207,1.52229334 C5.50882817,1.52229334 6.36888685,1.90411913 7.07924812,2.66693446 C7.78944434,3.43008428 8.15155694,4.35395885 8.16591601,5.43889265" id="Fill-24"></path>
                            <path d="M4.51508161,2.64069334 C3.82518614,2.64069334 3.24603704,2.90260275 2.74412984,3.44164108 C2.22901889,3.99439369 1.978808,4.64582226 1.978808,5.43339021 C1.978808,6.22095815 2.22736842,6.87071425 2.73851825,7.41978742 C3.23745461,7.9554808 3.81858427,8.22290937 4.51491656,8.2367909 C5.20415184,8.22290937 5.78198056,7.9554808 6.28108197,7.41962017 C6.79404731,6.86887453 7.04590867,6.21911843 7.05152026,5.43272122 C7.04590867,4.65067244 6.79355217,3.99489543 6.27943151,3.4399686 C5.78099028,2.90210101 5.20382175,2.64069334 4.51508161,2.64069334 M4.50451861,10.2024494 C3.2585806,10.2024494 2.18792224,9.72847035 1.32241702,8.7937247 C0.472261141,7.87553655 0.0367027324,6.74862366 0.0284503943,5.44426129 C0.0368677792,4.13621948 0.472261141,3.01315327 1.32241702,2.09479787 C2.18825234,1.16005223 3.25693013,0.686073134 4.49907207,0.686073134 C5.74022373,0.686073134 6.8102219,1.15955049 7.6795232,2.0931254 C8.53281496,3.00997557 8.97398496,4.1317038 8.99114983,5.42753655 L8.99114983,5.4499477 C8.97398496,6.7523031 8.53496057,7.87737627 7.68645516,8.7937247 C6.82094994,9.72847035 5.75029158,10.2024494 4.50451861,10.2024494" id="Fill-26"></path>
                        </g>
                        <g id="K" transform="translate(43.000000, 0.000000)">
                            <path d="M1.03226481,9.08394909 L1.03226481,1.78293167 C1.03226481,1.68893864 1.07666239,1.64177488 1.16595269,1.64177488 C1.20028241,1.64177488 1.2313112,1.65816512 1.25870897,1.69061111 C1.28627178,1.72305711 1.29997066,1.75399787 1.29997066,1.78293167 L1.29997066,6.66471564 L6.21407299,1.6852592 C6.2568201,1.64913376 6.30303319,1.6401024 6.35320741,1.65816512 C6.40305153,1.67622784 6.43358518,1.70700136 6.44414818,1.75015118 C6.45487621,1.7936355 6.44233266,1.83711982 6.40668256,1.8804369 L3.34490006,4.98304317 L6.4174106,8.98644387 C6.4530607,9.04447871 6.4583422,9.09866686 6.43358518,9.14917557 C6.40833303,9.19968428 6.37812947,9.22510589 6.34247937,9.22510589 C6.30666422,9.22510589 6.26375206,9.20704317 6.21407299,9.17091773 L3.15212544,5.17838812 L1.29997066,7.06627662 L1.29997066,9.08394909 C1.29997066,9.12040902 1.28627178,9.15285502 1.25870897,9.18162157 C1.2313112,9.21072261 1.20028241,9.22510589 1.16595269,9.22510589 C1.07666239,9.22510589 1.03226481,9.17827662 1.03226481,9.08394909" id="Fill-28"></path>
                            <path d="M6.34244636,10.0613094 C6.13036127,10.0613094 5.92520814,9.99022923 5.73259857,9.84990867 L5.63571612,9.77933028 L3.07600587,6.44207592 L2.12517147,7.41110728 L2.12517147,9.08391564 C2.12517147,9.33813167 2.02762883,9.5796369 1.85053365,9.76444526 C1.67195305,9.95393655 1.42702366,10.0613094 1.16608472,10.0613094 C0.619284797,10.0613094 0.206997983,9.64101669 0.206997983,9.08391564 L0.206997983,1.78289822 C0.206997983,1.22579718 0.619284797,0.805504493 1.16608472,0.805504493 C1.44055749,0.805504493 1.70298184,0.930103796 1.88618375,1.14735815 C2.08341463,1.38016651 2.12517147,1.62150449 2.12517147,1.78289822 L2.12517147,4.64583899 L5.68655052,1.0419923 C5.95112048,0.819218779 6.30613607,0.75449404 6.62830735,0.869727489 C6.94387677,0.984626444 7.16701999,1.23131634 7.24492206,1.54825014 C7.31985329,1.84962993 7.24558225,2.16689822 7.04042912,2.41592958 L6.99025491,2.47162296 L4.4434183,5.05241738 L7.1180011,8.54454282 C7.3040088,8.84726059 7.32414451,9.21286338 7.17197139,9.5221038 C7.00395379,9.860947 6.69432606,10.0613094 6.34244636,10.0613094" id="Fill-30"></path>
                        </g>
                    </g>
                </g>
            </g>
        </g>
    </g>
</svg>